<svg width="13" height="13" viewBox="0 0 13 13" fill="none" xmlns="http://www.w3.org/2000/svg">
<g clip-path="url(#clip0_508_1040)">
<path d="M12.7189 6.78701L9.34393 10.162C9.27356 10.2324 9.17812 10.2719 9.07861 10.2719C8.9791 10.2719 8.88367 10.2324 8.8133 10.162C8.74294 10.0916 8.7034 9.9962 8.7034 9.89669C8.7034 9.79718 8.74294 9.70175 8.8133 9.63138L11.5485 6.89669H4.20361C4.10416 6.89669 4.00877 6.85718 3.93845 6.78686C3.86812 6.71653 3.82861 6.62115 3.82861 6.52169C3.82861 6.42224 3.86812 6.32685 3.93845 6.25653C4.00877 6.1862 4.10416 6.14669 4.20361 6.14669H11.5485L8.8133 3.41201C8.74294 3.34164 8.7034 3.2462 8.7034 3.14669C8.7034 3.04718 8.74294 2.95175 8.8133 2.88138C8.88367 2.81102 8.9791 2.77148 9.07861 2.77148C9.17812 2.77148 9.27356 2.81102 9.34393 2.88138L12.7189 6.25638C12.7538 6.29121 12.7815 6.33257 12.8003 6.37809C12.8192 6.42361 12.8289 6.47241 12.8289 6.52169C12.8289 6.57097 12.8192 6.61977 12.8003 6.6653C12.7815 6.71082 12.7538 6.75218 12.7189 6.78701Z" fill="#AEAFBC"/>
</g>
<defs>
<clipPath id="clip0_508_1040">
<rect width="12" height="12" fill="white" transform="translate(0.829102 0.521484)"/>
</clipPath>
</defs>
</svg>
