<svg width="32" height="33" viewBox="0 0 32 33" fill="none" xmlns="http://www.w3.org/2000/svg">
<rect y="0.775391" width="31.7468" height="31.7468" rx="4.50065" transform="rotate(-0.458782 0 0.775391)" fill="#0C0C0C"/>
<g clip-path="url(#clip0_450_879)">
<path d="M15.9978 6.75586L15.8667 7.20121V20.1231L15.9978 20.2539L21.9959 16.7084L15.9978 6.75586Z" fill="#343434"/>
<path d="M15.998 6.75586L9.99976 16.7084L15.998 20.2539V13.982V6.75586Z" fill="#8C8C8C"/>
<path d="M15.9985 21.3894L15.9246 21.4795V26.0825L15.9985 26.2982L22.0002 17.8457L15.9985 21.3894Z" fill="#3C3C3B"/>
<path d="M15.998 26.2982V21.3894L9.99976 17.8457L15.998 26.2982Z" fill="#8C8C8C"/>
<path d="M15.998 20.2544L21.9961 16.7088L15.998 13.9824V20.2544Z" fill="#141414"/>
<path d="M9.99976 16.7088L15.998 20.2544V13.9824L9.99976 16.7088Z" fill="#393939"/>
</g>
<defs>
<clipPath id="clip0_450_879">
<rect width="12" height="19.5427" fill="white" transform="translate(10 6.75)"/>
</clipPath>
</defs>
</svg>
