<svg width="40" height="27" viewBox="0 0 40 27" fill="none" xmlns="http://www.w3.org/2000/svg">
<path d="M31.9125 13.4238C31.9125 12.5842 31.8336 11.777 31.6869 11.002H19.9999V15.5874H26.6782C26.3849 17.062 25.505 18.3106 24.1851 19.1502V22.1318H28.2124C30.5588 20.0651 31.9125 17.0297 31.9125 13.4238Z" fill="#4285F4"/>
<path d="M19.9998 24.9959C23.3502 24.9959 26.1591 23.941 28.2123 22.1327L24.185 19.1511C23.0794 19.8615 21.6693 20.2921 19.9998 20.2921C16.7734 20.2921 14.0321 18.2146 13.0507 15.416H8.92188V18.473C10.9637 22.3372 15.149 24.9959 19.9998 24.9959Z" fill="#34A853"/>
<path d="M13.0509 15.4039C12.8027 14.6935 12.6561 13.94 12.6561 13.1543C12.6561 12.3685 12.8027 11.615 13.0509 10.9046V7.84766H8.92209C8.07602 9.44071 7.59094 11.2383 7.59094 13.1543C7.59094 15.0702 8.07602 16.8678 8.92209 18.4609L12.1372 16.0713L13.0509 15.4039Z" fill="#FBBC05"/>
<path d="M20 6.02904C21.8275 6.02904 23.452 6.63181 24.7493 7.79431L28.3028 4.40369C26.1481 2.48772 23.3504 1.31445 20 1.31445C15.1492 1.31445 10.964 3.97313 8.92212 7.84813L13.0509 10.9051C14.0324 8.10647 16.7736 6.02904 20 6.02904Z" fill="#EA4335"/>
</svg>
