<svg width="19" height="19" viewBox="0 0 19 19" fill="none" xmlns="http://www.w3.org/2000/svg">
<mask id="mask0_508_1085" style="mask-type:luminance" maskUnits="userSpaceOnUse" x="0" y="0" width="19" height="19">
<path d="M9.5 0.521484C14.468 0.521484 18.5 4.55348 18.5 9.52148C18.5 14.4895 14.468 18.5215 9.5 18.5215C4.532 18.5215 0.5 14.4895 0.5 9.52148C0.5 4.55348 4.532 0.521484 9.5 0.521484Z" fill="white"/>
</mask>
<g mask="url(#mask0_508_1085)">
<path d="M0.5 0.521484L18.5 18.5215M18.5 0.521484L0.5 18.5215" stroke="black" stroke-width="0.0072" stroke-miterlimit="22.9256"/>
</g>
<mask id="mask1_508_1085" style="mask-type:luminance" maskUnits="userSpaceOnUse" x="4" y="8" width="11" height="9">
<path d="M9.49254 11.1197L5.48214 8.83008L5.37414 8.99568C4.14294 10.8893 4.41654 13.3661 6.03654 14.9573C7.94454 16.8293 11.0405 16.8293 12.9485 14.9573C14.5685 13.3661 14.8421 10.8893 13.6109 8.99568L13.5029 8.83008L9.49254 11.1197Z" fill="white"/>
</mask>
<g mask="url(#mask1_508_1085)">
<path d="M9.49232 16.5061C12.1923 16.5061 14.3811 14.3173 14.3811 11.6173C14.3811 8.91731 12.1923 6.72852 9.49232 6.72852C6.79231 6.72852 4.60352 8.91731 4.60352 11.6173C4.60352 14.3173 6.79231 16.5061 9.49232 16.5061Z" fill="white"/>
</g>
<path d="M9.49262 6.00586L6.03662 7.97866L9.49262 9.95146L12.9486 7.97866L9.49262 6.00586Z" fill="white" fill-opacity="0.5"/>
<path d="M9.50002 6.51562L5.48242 8.82682L9.49282 11.1164L13.496 8.82682L9.50002 6.51562Z" fill="white" fill-opacity="0.5"/>
<path d="M9.49262 2.67969L6.03662 7.97889L9.49262 9.95169V2.67969Z" fill="white"/>
<path d="M9.49268 9.95169L12.9487 7.97889L9.49268 2.67969V9.95169Z" fill="white" fill-opacity="0.4"/>
</svg>
