<svg width="17" height="19" viewBox="0 0 17 19" fill="none" xmlns="http://www.w3.org/2000/svg">
<g clip-path="url(#clip0_508_1043)">
<path d="M6.78769 4.6183C6.59264 4.59044 6.58335 4.58115 6.67623 4.57186C6.8527 4.544 7.26137 4.58115 7.5493 4.64616C8.21803 4.80406 8.82174 5.21273 9.46261 5.9279L9.62979 6.12294L9.87128 6.08579C10.9022 5.91861 11.9611 6.04864 12.8434 6.45731C13.0849 6.56876 13.4657 6.79167 13.5121 6.8474C13.5307 6.86598 13.5586 6.98672 13.5772 7.10746C13.6422 7.544 13.6143 7.86907 13.475 8.11985C13.4007 8.25917 13.4007 8.29632 13.4471 8.41706C13.4843 8.50994 13.5957 8.57496 13.6979 8.57496C13.9208 8.57496 14.153 8.22201 14.2645 7.72975L14.3109 7.53471L14.3945 7.62759C14.8682 8.157 15.2397 8.89075 15.2954 9.41087L15.314 9.55019L15.2304 9.42945C15.0911 9.21582 14.9611 9.0765 14.7846 8.95576C14.4688 8.74214 14.1344 8.67712 13.2521 8.63068C12.4533 8.58424 11.9982 8.51923 11.5524 8.37062C10.7908 8.11985 10.4007 7.79477 9.49976 6.59663C9.10038 6.06722 8.84961 5.77929 8.59883 5.5378C8.05085 5.00839 7.50286 4.72975 6.78769 4.6183Z" fill="white"/>
<path d="M13.7075 5.7965C13.7261 5.44356 13.7726 5.21136 13.8747 4.99774C13.9119 4.91415 13.949 4.83984 13.9583 4.83984C13.9676 4.83984 13.949 4.90486 13.9212 4.97916C13.8469 5.1835 13.8376 5.47142 13.884 5.7965C13.949 6.21446 13.9769 6.27018 14.4227 6.72529C14.627 6.93892 14.8685 7.20826 14.9614 7.31972L15.1193 7.52405L14.9614 7.37545C14.7664 7.18969 14.3205 6.83675 14.2184 6.79031C14.1534 6.75316 14.1441 6.75316 14.0976 6.7996C14.0605 6.83675 14.0512 6.89248 14.0512 7.16183C14.0419 7.57978 13.9862 7.83984 13.8469 8.10919C13.7726 8.24851 13.7633 8.22065 13.8283 8.06275C13.8747 7.94201 13.884 7.88628 13.884 7.4869C13.884 6.67885 13.7911 6.48381 13.2246 6.15873C13.0852 6.07514 12.8438 5.95439 12.7044 5.88938C12.5558 5.82436 12.4444 5.76864 12.4537 5.76864C12.4722 5.75006 13.0202 5.90796 13.2339 6.00083C13.5589 6.13087 13.6147 6.14015 13.6518 6.13087C13.6797 6.103 13.6982 6.0287 13.7075 5.7965Z" fill="white"/>
<path d="M7.16855 7.18023C6.77846 6.64153 6.52769 5.80562 6.58341 5.18333L6.60199 4.98828L6.69487 5.00686C6.86205 5.03472 7.14998 5.14618 7.2893 5.22977C7.66081 5.45268 7.828 5.75918 7.98589 6.52079C8.03233 6.7437 8.09735 7.00376 8.12521 7.08735C8.17165 7.22667 8.34812 7.55175 8.49673 7.75608C8.59889 7.90469 8.53388 7.97899 8.30168 7.96042C7.94874 7.92327 7.47505 7.59819 7.16855 7.18023Z" fill="white"/>
<path d="M13.2338 11.2214C11.3948 10.4784 10.7446 9.8375 10.7446 8.75082C10.7446 8.59292 10.7539 8.46289 10.7539 8.46289C10.7632 8.46289 10.8282 8.51862 10.9118 8.58363C11.2833 8.88085 11.7013 9.01088 12.8623 9.17806C13.5403 9.28023 13.9304 9.35453 14.2833 9.47527C15.4072 9.84679 16.1038 10.6084 16.2709 11.6394C16.3174 11.9366 16.2895 12.5031 16.2152 12.8004C16.1502 13.0326 15.9644 13.4598 15.918 13.4691C15.9087 13.4691 15.8901 13.4226 15.8901 13.3483C15.8716 12.9582 15.6765 12.5867 15.3514 12.2988C14.9613 11.9644 14.4598 11.7137 13.2338 11.2214Z" fill="white"/>
<path d="M11.9331 11.5275C11.9145 11.3881 11.8681 11.2117 11.8402 11.1374L11.7938 10.998L11.8774 11.1002C11.9981 11.2395 12.091 11.4067 12.1746 11.6389C12.2396 11.8154 12.2396 11.8711 12.2396 12.159C12.2396 12.4377 12.2303 12.5027 12.1746 12.6606C12.0817 12.9114 11.9702 13.0878 11.7845 13.2829C11.4501 13.6265 11.0136 13.8123 10.3913 13.8959C10.2798 13.9052 9.96405 13.933 9.68541 13.9516C8.98881 13.9888 8.52442 14.0631 8.10646 14.2117C8.05073 14.2302 7.99501 14.2488 7.98572 14.2395C7.96714 14.221 8.25507 14.0538 8.48727 13.9423C8.81234 13.7844 9.14671 13.7008 9.88046 13.5708C10.2427 13.5151 10.6142 13.4408 10.7071 13.4036C11.6266 13.1157 12.0817 12.4005 11.9331 11.5275Z" fill="white"/>
<path d="M12.7784 13.0214C12.5369 12.4919 12.4812 11.9904 12.6112 11.5167C12.6298 11.4703 12.6484 11.4238 12.667 11.4238C12.6855 11.4238 12.7413 11.4517 12.797 11.4888C12.9084 11.5631 13.1406 11.6932 13.7351 12.0183C14.4874 12.4269 14.9146 12.7427 15.2119 13.1049C15.4719 13.4207 15.6298 13.783 15.7041 14.2288C15.7506 14.4796 15.7227 15.0833 15.6577 15.334C15.4533 16.1235 14.9889 16.7551 14.3109 17.1173C14.2088 17.1731 14.1252 17.2102 14.1159 17.2102C14.1066 17.2102 14.1437 17.1173 14.1995 17.0059C14.4224 16.5322 14.4502 16.0771 14.2831 15.5662C14.1809 15.2505 13.9673 14.8696 13.54 14.2288C13.0292 13.4857 12.9084 13.2907 12.7784 13.0214Z" fill="white"/>
<path d="M5.85862 15.8652C6.54593 15.2893 7.39113 14.8806 8.17131 14.7506C8.50568 14.6949 9.06296 14.7135 9.36946 14.797C9.86172 14.9271 10.3075 15.2057 10.5397 15.5494C10.7626 15.8837 10.8648 16.1717 10.967 16.8125C11.0041 17.0633 11.0506 17.3234 11.0599 17.3791C11.1342 17.7135 11.2828 17.9735 11.4685 18.1128C11.7565 18.3265 12.258 18.3357 12.7503 18.15C12.8339 18.1221 12.9082 18.0943 12.9082 18.1035C12.9267 18.1221 12.676 18.2893 12.5088 18.3729C12.2766 18.4936 12.0908 18.5308 11.84 18.5308C11.3942 18.5308 11.0134 18.2986 10.7069 17.8342C10.6419 17.7413 10.5119 17.472 10.4004 17.2212C10.0753 16.4689 9.90816 16.246 9.52735 15.9952C9.19299 15.7816 8.76574 15.7351 8.44066 15.893C8.01342 16.0974 7.90196 16.6453 8.19918 16.9797C8.31992 17.119 8.54283 17.2305 8.72859 17.2583C9.07224 17.3048 9.36946 17.0354 9.36946 16.6918C9.36946 16.4689 9.28587 16.3388 9.06295 16.2367C8.76574 16.1066 8.44066 16.2552 8.44995 16.5432C8.44995 16.6639 8.50568 16.7382 8.62642 16.7939C8.70073 16.8311 8.70073 16.8311 8.645 16.8218C8.37565 16.7661 8.31063 16.4317 8.52426 16.2181C8.78432 15.958 9.3323 16.0695 9.51806 16.4317C9.59237 16.5803 9.60165 16.8775 9.53664 17.0633C9.37874 17.472 8.93292 17.6856 8.47782 17.5648C8.17131 17.4813 8.04128 17.3977 7.66977 17.0169C7.01961 16.3481 6.76884 16.2181 5.84004 16.0788L5.66357 16.0509L5.85862 15.8652Z" fill="white"/>
<path fill-rule="evenodd" clip-rule="evenodd" d="M0.973429 0.920865C3.13752 3.54935 6.47188 7.63604 6.63906 7.85895C6.77838 8.0447 6.72266 8.22118 6.49046 8.35121C6.36043 8.42551 6.09108 8.49981 5.96105 8.49981C5.81244 8.49981 5.63597 8.42551 5.51522 8.30477C5.43163 8.22118 5.0694 7.69176 4.25207 6.41932C3.62978 5.44409 3.10036 4.63604 3.09108 4.62675C3.05392 4.60817 3.05392 4.60817 4.18705 6.63294C4.90222 7.90539 5.13442 8.36049 5.13442 8.41622C5.13442 8.53697 5.09727 8.60198 4.94866 8.76916C4.69789 9.0478 4.58643 9.36359 4.50284 10.023C4.40996 10.7568 4.15919 11.2769 3.44402 12.1593C3.02606 12.6794 2.96105 12.7723 2.85888 12.9859C2.72885 13.2459 2.6917 13.3946 2.67312 13.7289C2.65454 14.0819 2.6917 14.3048 2.79386 14.6391C2.88674 14.9363 2.98891 15.1314 3.23968 15.5122C3.45331 15.8466 3.58334 16.0973 3.58334 16.1902C3.58334 16.2645 3.60191 16.2645 3.93628 16.1902C4.73504 16.0045 5.39448 15.6887 5.75671 15.2986C5.97962 15.0571 6.03535 14.9271 6.03535 14.5927C6.03535 14.3791 6.02606 14.3326 5.97033 14.2026C5.87745 13.9983 5.70098 13.8311 5.32018 13.571C4.81863 13.2274 4.60501 12.9487 4.54928 12.5772C4.50284 12.2614 4.55857 12.0478 4.83721 11.4627C5.12513 10.8589 5.19944 10.6082 5.24588 9.99517C5.27374 9.60508 5.32018 9.44718 5.43163 9.32644C5.55238 9.19641 5.65454 9.14997 5.94247 9.11282C6.41615 9.0478 6.72266 8.92706 6.96414 8.69486C7.17776 8.49981 7.27064 8.30477 7.27993 8.01684L7.28922 7.80322L7.16848 7.67319C6.73194 7.17164 0.685503 0.521484 0.65764 0.521484C0.648352 0.521484 0.796959 0.697955 0.973429 0.920865ZM3.82482 14.1283C3.92699 13.9518 3.87126 13.7289 3.70408 13.6175C3.54618 13.5153 3.3047 13.5617 3.3047 13.7011C3.3047 13.7382 3.32327 13.7754 3.379 13.7939C3.46259 13.8404 3.47188 13.8868 3.40687 13.989C3.34185 14.0911 3.34185 14.184 3.42544 14.249C3.55547 14.3512 3.73194 14.2955 3.82482 14.1283Z" fill="white"/>
<path fill-rule="evenodd" clip-rule="evenodd" d="M7.5864 9.24145C7.36349 9.30647 7.14987 9.54796 7.08485 9.78944C7.0477 9.93805 7.06628 10.2074 7.13129 10.291C7.23346 10.421 7.32634 10.4582 7.5864 10.4582C8.09724 10.4582 8.53377 10.2353 8.58021 9.96591C8.62665 9.743 8.4316 9.4365 8.16225 9.29718C8.02293 9.22288 7.73501 9.19501 7.5864 9.24145ZM8.18083 9.70585C8.25513 9.5944 8.22727 9.47365 8.08795 9.39006C7.83718 9.23217 7.45637 9.3622 7.45637 9.60368C7.45637 9.72443 7.65142 9.85446 7.83718 9.85446C7.95792 9.85446 8.1251 9.78015 8.18083 9.70585Z" fill="white"/>
</g>
<defs>
<clipPath id="clip0_508_1043">
<rect width="15.6316" height="18" fill="white" transform="translate(0.657715 0.521484)"/>
</clipPath>
</defs>
</svg>
